<svg width="1200" height="900" viewBox="0 0 1200 900" fill="none" xmlns="http://www.w3.org/2000/svg">
  <rect width="1200" height="900" rx="36" fill="#020617"/>
  <rect x="40" y="40" width="1120" height="820" rx="28" fill="#0B1220" stroke="#1E293B" stroke-width="2"/>

  <rect x="82" y="94" width="220" height="34" rx="10" fill="#111827"/>
  <rect x="102" y="106" width="118" height="10" rx="5" fill="#94A3B8"/>

  <circle cx="1030" cy="110" r="12" fill="#334155"/>
  <circle cx="1070" cy="110" r="12" fill="#334155"/>
  <circle cx="1110" cy="110" r="12" fill="#F97316"/>

  <rect x="82" y="164" width="250" height="658" rx="20" fill="#0F172A" stroke="#1F2937"/>
  <rect x="362" y="164" width="756" height="316" rx="20" fill="#0F172A" stroke="#1F2937"/>
  <rect x="362" y="506" width="360" height="316" rx="20" fill="#0F172A" stroke="#1F2937"/>
  <rect x="758" y="506" width="360" height="316" rx="20" fill="#0F172A" stroke="#1F2937"/>

  <rect x="108" y="206" width="198" height="14" rx="7" fill="#334155"/>
  <rect x="108" y="242" width="160" height="12" rx="6" fill="#1E293B"/>
  <rect x="108" y="274" width="172" height="12" rx="6" fill="#1E293B"/>
  <rect x="108" y="306" width="142" height="12" rx="6" fill="#1E293B"/>

  <rect x="108" y="358" width="120" height="34" rx="10" fill="#F97316"/>
  <rect x="126" y="370" width="74" height="10" rx="5" fill="#FFF7ED"/>

  <rect x="108" y="426" width="198" height="14" rx="7" fill="#334155"/>
  <rect x="108" y="462" width="160" height="12" rx="6" fill="#1E293B"/>
  <rect x="108" y="494" width="176" height="12" rx="6" fill="#1E293B"/>

  <path d="M404 416 L504 344 L594 376 L700 276 L812 320 L896 226 L1000 270" stroke="#F97316" stroke-width="8" stroke-linecap="round" stroke-linejoin="round"/>
  <circle cx="404" cy="416" r="10" fill="#FDBA74"/>
  <circle cx="594" cy="376" r="10" fill="#FDBA74"/>
  <circle cx="812" cy="320" r="10" fill="#FDBA74"/>
  <circle cx="1000" cy="270" r="10" fill="#FDBA74"/>

  <rect x="404" y="548" width="276" height="16" rx="8" fill="#334155"/>
  <rect x="404" y="584" width="230" height="12" rx="6" fill="#1E293B"/>
  <rect x="404" y="614" width="258" height="12" rx="6" fill="#1E293B"/>
  <rect x="404" y="644" width="192" height="12" rx="6" fill="#1E293B"/>

  <rect x="796" y="548" width="284" height="16" rx="8" fill="#334155"/>
  <rect x="796" y="584" width="96" height="168" rx="14" fill="#1E293B"/>
  <rect x="910" y="640" width="96" height="112" rx="14" fill="#F97316"/>
  <rect x="1024" y="602" width="56" height="150" rx="14" fill="#334155"/>

  <rect x="526" y="698" width="130" height="78" rx="22" fill="#0B1220" stroke="#334155"/>
  <circle cx="566" cy="737" r="18" fill="#F97316"/>
  <rect x="596" y="726" width="46" height="22" rx="11" fill="#334155"/>

  <rect x="902" y="214" width="188" height="58" rx="16" fill="#111827" stroke="#374151"/>
  <circle cx="936" cy="243" r="10" fill="#F97316"/>
  <rect x="958" y="236" width="104" height="14" rx="7" fill="#475569"/>
</svg>
